# xmcd CD database file
# Copyright (C) 1997 Ti Kan
#
# Track frame offsets:
#  182
#  9632
#  22827
#  38282
#  51585
#  63527
#  72832
#  84392
#  100847
#  114240
#
# Disc length: 1672 seconds
#
# Revision: 1
# Processed by: cddbd v1.4b41PL1 Copyright (c) Steve Scherf et al.
# Submitted via: CDWizzard Release:4.32
#
DISCID=7306860a
DTITLE=Various Artist - The 101 Greatest Country Hits Vol 2: Country Sunshine
DYEAR=1900
DGENRE=
TTITLE0=Country Sunshine
TTITLE1=Misty
TTITLE2=(Hey Won't You Play) Another Somebody Done Somebody Wrong Song
TTITLE3=Delta Dawn
TTITLE4=All The Gold In California
TTITLE5=Kiss An Angel Good Morning
TTITLE6=Heaven's Just A Sin Away
TTITLE7=I Loved 'Em Every One
TTITLE8=Don't All The Girls Get Prettier At Closing Time
TTITLE9=Louisiana Woman, Mississippi Man
EXTD=
EXTT0=DOTTIE WEST
EXTT1=RAY STEVENS
EXTT2=B.J. THOMAS
EXTT3=TANYA TUCKER
EXTT4=LARRY GATLIN and THE GATLIN BROTHER'S BAND
EXTT5=CHARLEY PRIDE
EXTT6=KENDALLS, THE
EXTT7=T.G. SHEPARD
EXTT8=MICKEY GILLEY
EXTT9=CONWAY TWITTY and LORETTA LYNN
PLAYORDER=
